P3
64 64
255
255
255
255
255
255
255
255
255
255
255
255
255
255
255
255
255
255
255
255
255
255
255
255
255
255
255
255
255
255
255
255
255
255
255
255
255
255
255
255
255
255
255
255
255
255
255
255
255
255
255
255
255
255
255
255
255
255
255
255
255
255
255
255
255
255
255
255
255
255
255
255
255
255
255
255
255
255
255
255
255
255
255
255
255
255
255
255
255
255
255
255
255
255
255
255
255
255
255
255
255
255
255
255
255
255
255
255
255
255
255
255
255
255
255
255
255
255
255
255
255
255
255
255
255
255
255
255
255
255
255
255
255
255
255
255
255
255
255
255
255
255
255
255
255
255
255
255
255
255
255
255
255
255
255
255
255
255
255
255
255
255
255
255
255
255
255
255
255
255
255
255
255
255
255
255
255
255
255
255
255
255
255
255
255
255
255
255
255
255
255
255
255
255
255
255
255
255
255
255
255
255
255
255
255
255
255
255
255
255
255
255
255
255
255
255
255
255
255
255
255
255
255
255
255
255
255
255
255
255
255
255
255
255
255
255
255
255
255
255
255
255
255
255
255
255
255
255
255
255
255
255
255
255
255
255
255
255
255
255
255
255
255
255
255
255
255
255
255
255
255
255
255
255
255
255
255
255
255
255
255
255
255
255
255
255
255
255
255
255
255
255
255
255
255
255
255
255
255
255
255
255
255
255
255
255
255
255
255
255
255
255
255
255
255
255
255
255
255
255
255
255
255
255
255
255
255
255
255
255
255
255
255
255
255
255
255
255
255
255
255
255
255
255
255
255
255
255
255
255
255
255
255
255
255
255
255
255
255
255
255
255
255
255
255
255
255
255
255
255
255
255
255
255
255
255
255
255
255
255
255
255
255
255
255
255
255
255
255
255
255
255
255
255
255
255
255
255
255
255
255
255
255
255
255
255
255
218
163
255
246
235
255
255
255
255
255
255
255
255
255
255
255
255
255
255
255
255
255
255
255
255
255
255
255
255
255
255
255
255
255
255
255
255
255
255
255
255
255
255
255
255
246
236
255
215
154
255
246
235
255
255
255
255
255
255
255
255
255
255
255
255
255
255
255
255
255
255
255
255
255
255
255
255
255
255
255
255
255
255
255
255
255
255
255
255
255
255
255
255
255
255
255
255
255
235
235
255
163
164
255
255
255
255
255
255
255
255
255
255
255
255
255
255
255
255
255
255
255
255
255
255
255
255
255
255
255
255
255
255
255
255
255
255
255
255
255
255
255
255
250
250
255
214
214
255
163
164
255
255
255
255
255
255
255
255
255
255
255
255
255
255
255
255
255
255
255
255
255
255
255
255
255
255
255
255
255
255
255
255
255
255
255
255
255
255
255
255
255
206
122
255
205
115
255
227
189
255
250
245
255
255
255
255
255
255
255
255
255
255
255
255
255
255
255
255
255
255
255
255
255
255
255
255
255
255
255
255
255
255
255
218
163
255
203
109
255
216
156
255
249
242
255
255
255
255
255
255
255
255
255
255
255
255
255
255
255
255
255
255
255
255
255
255
255
255
255
255
255
255
255
255
255
255
255
255
255
255
255
255
255
255
255
255
255
255
255
232
232
255
42
45
255
145
145
255
216
216
255
255
255
255
255
255
255
255
255
255
255
255
255
255
255
255
255
255
255
255
255
255
255
255
255
255
255
255
255
255
255
235
235
255
120
121
255
128
128
255
189
190
255
255
255
255
255
255
255
255
255
255
255
255
255
255
255
255
255
255
255
255
255
255
255
255
255
255
255
255
255
255
255
255
255
255
255
255
255
255
255
255
255
237
214
255
202
101
255
198
83
255
205
119
255
246
235
255
255
255
255
255
255
255
255
255
255
255
255
255
255
255
255
255
255
255
255
255
255
237
216
255
212
145
255
194
42
255
192
0
255
239
220
255
254
254
255
255
255
255
255
255
255
255
255
255
255
255
255
255
255
255
255
255
255
255
255
255
255
255
255
255
255
255
255
255
255
255
255
255
255
255
255
255
255
255
255
255
255
255
255
247
247
255
183
183
255
28
32
255
93
94
255
163
164
255
255
255
255
255
255
255
255
255
255
255
255
255
255
255
255
255
255
255
255
255
255
245
245
255
189
190
255
115
116
255
0
9
255
119
119
255
245
245
255
255
255
255
255
255
255
255
255
255
255
255
255
255
255
255
255
255
255
255
255
255
255
255
255
255
255
255
255
255
255
255
255
255
255
255
255
255
255
255
255
253
250
255
206
120
255
192
0
255
192
0
255
205
115
255
206
122
255
246
235
255
255
255
255
255
255
255
255
255
255
255
255
255
218
163
255
200
93
255
193
28
255
192
0
255
192
0
255
244
232
255
255
255
255
255
255
255
255
255
255
255
255
255
255
255
255
255
255
255
255
255
255
255
255
255
255
255
255
255
255
255
255
255
255
255
255
255
255
255
255
255
255
255
255
255
255
255
255
254
254
255
226
226
255
0
9
255
0
9
255
42
45
255
122
123
255
163
164
255
255
255
255
255
255
255
255
255
255
255
255
255
235
235
255
119
119
255
83
84
255
0
9
255
0
9
255
122
123
255
255
255
255
255
255
255
255
255
255
255
255
255
255
255
255
255
255
255
255
255
255
255
255
255
255
255
255
255
255
255
255
255
255
255
255
255
255
255
255
255
255
255
255
255
255
255
206
122
255
192
0
255
192
0
255
192
0
255
192
0
255
205
115
255
227
189
255
250
245
255
237
216
255
212
145
255
194
42
255
192
0
255
192
0
255
192
0
255
192
0
255
244
232
255
255
255
255
255
255
255
255
255
255
255
255
255
255
255
255
255
255
255
255
255
255
255
255
255
255
255
255
255
255
255
255
255
255
255
255
255
255
255
255
255
255
255
255
255
255
255
255
255
255
255
232
232
255
0
9
255
0
9
255
0
9
255
0
9
255
42
45
255
145
145
255
216
216
255
245
245
255
189
190
255
115
116
255
0
9
255
0
9
255
0
9
255
0
9
255
122
123
255
255
255
255
255
255
255
255
255
255
255
255
255
255
255
255
255
255
255
255
255
255
255
255
255
255
255
255
255
255
255
255
255
255
255
255
255
255
255
255
255
255
255
255
255
255
255
217
160
255
195
58
255
192
0
255
192
0
255
192
0
255
192
0
255
198
83
255
205
119
255
200
93
255
193
28
255
192
0
255
192
0
255
192
0
255
192
0
255
215
153
255
249
242
255
255
255
255
255
255
255
255
255
255
255
255
255
255
255
255
255
255
255
255
255
255
255
255
255
255
255
255
255
255
255
255
255
255
255
255
255
255
255
255
255
255
255
255
255
255
255
255
255
255
255
237
237
255
111
112
255
0
9
255
0
9
255
0
9
255
0
9
255
28
32
255
93
94
255
119
119
255
83
84
255
0
9
255
0
9
255
0
9
255
0
9
255
83
84
255
189
190
255
255
255
255
255
255
255
255
255
255
255
255
255
255
255
255
255
255
255
255
255
255
255
255
255
255
255
255
255
255
255
255
255
255
255
255
255
255
255
255
255
255
255
255
255
255
255
239
220
255
202
103
255
192
0
255
192
0
255
192
0
255
192
0
255
192
0
255
192
0
255
192
0
255
192
0
255
192
0
255
192
0
255
192
0
255
192
0
255
239
220
255
254
254
255
255
255
255
255
255
255
255
255
255
255
255
255
255
255
255
255
255
255
255
255
255
255
255
255
255
255
255
255
255
255
255
255
255
255
255
255
255
255
255
255
255
255
255
255
255
255
255
255
255
255
248
248
255
190
191
255
0
9
255
0
9
255
0
9
255
0
9
255
0
9
255
0
9
255
0
9
255
0
9
255
0
9
255
0
9
255
0
9
255
0
9
255
119
119
255
245
245
255
255
255
255
255
255
255
255
255
255
255
255
255
255
255
255
255
255
255
255
255
255
255
255
255
255
255
255
255
255
255
255
255
255
255
255
255
255
255
255
255
255
255
255
255
255
255
253
250
255
206
120
255
192
0
255
192
0
255
192
0
255
192
0
255
192
0
255
192
0
255
192
0
255
192
0
255
192
0
255
192
0
255
192
0
255
192
0
255
244
232
255
255
255
255
255
255
255
255
255
255
255
255
255
255
255
255
255
255
255
255
255
255
255
255
255
255
255
255
255
255
255
255
255
255
255
255
255
255
255
255
255
255
255
255
255
255
255
255
255
255
255
255
255
255
254
254
255
226
226
255
0
9
255
0
9
255
0
9
255
0
9
255
0
9
255
0
9
255
0
9
255
0
9
255
0
9
255
0
9
255
0
9
255
0
9
255
122
123
255
255
255
255
255
255
255
255
255
255
255
255
255
255
255
255
255
255
255
255
255
255
255
255
255
255
255
255
255
255
255
255
255
255
255
255
255
255
255
255
255
255
255
255
255
255
255
255
255
255
255
255
255
206
122
255
192
0
255
192
0
255
192
0
255
192
0
255
192
0
255
192
0
255
192
0
255
192
0
255
192
0
255
192
0
255
192
0
255
192
0
255
244
232
255
255
255
255
255
255
255
255
255
255
255
255
255
255
255
255
255
255
255
255
255
255
255
255
255
255
255
255
255
255
255
255
255
255
255
255
255
255
255
255
255
255
255
255
255
255
255
255
255
255
255
255
255
255
255
255
255
232
232
255
0
9
255
0
9
255
0
9
255
0
9
255
0
9
255
0
9
255
0
9
255
0
9
255
0
9
255
0
9
255
0
9
255
0
9
255
122
123
255
255
255
255
255
255
255
255
255
255
255
255
255
255
255
255
255
255
255
255
255
255
255
255
255
255
255
255
255
255
255
255
255
255
255
255
255
255
255
255
255
255
255
255
255
255
255
255
255
255
255
255
255
217
160
255
195
58
255
192
0
255
192
0
255
192
0
255
192
0
255
192
0
255
192
0
255
192
0
255
192
0
255
192
0
255
192
0
255
215
153
255
249
242
255
255
255
255
255
255
255
255
255
255
255
255
255
255
255
255
255
255
255
255
255
255
255
255
255
255
255
255
255
255
255
255
255
255
255
255
255
255
255
255
255
255
255
255
255
255
255
255
255
255
255
255
255
255
255
255
255
237
237
255
111
112
255
0
9
255
0
9
255
0
9
255
0
9
255
0
9
255
0
9
255
0
9
255
0
9
255
0
9
255
0
9
255
83
84
255
189
190
255
255
255
255
255
255
255
255
255
255
255
255
255
255
255
255
255
255
255
255
255
255
255
255
255
255
255
255
255
255
255
255
255
255
255
255
255
255
255
255
255
255
255
255
255
255
255
255
255
255
228
192
255
200
93
255
192
18
255
192
0
255
192
0
255
192
0
255
192
0
255
192
0
255
192
0
255
192
0
255
192
0
255
192
0
255
192
0
255
198
83
255
205
119
255
246
235
255
255
255
255
255
255
255
255
255
255
255
255
255
255
255
255
255
255
255
255
255
255
255
255
255
255
255
255
255
255
255
255
255
255
255
255
255
255
255
255
255
255
255
255
255
255
255
255
255
255
255
240
240
255
157
157
255
58
60
255
0
9
255
0
9
255
0
9
255
0
9
255
0
9
255
0
9
255
0
9
255
0
9
255
0
9
255
0
9
255
28
32
255
93
94
255
163
164
255
255
255
255
255
255
255
255
255
255
255
255
255
255
255
255
255
255
255
255
255
255
255
255
255
255
255
255
255
255
255
255
255
255
255
255
255
255
255
255
255
255
255
255
218
163
255
197
73
255
192
18
255
192
0
255
192
0
255
192
0
255
192
0
255
192
0
255
192
0
255
192
0
255
192
0
255
192
0
255
192
0
255
192
0
255
192
0
255
192
0
255
205
115
255
246
235
255
255
255
255
255
255
255
255
255
255
255
255
255
255
255
255
255
255
255
255
255
255
255
255
255
255
255
255
255
255
255
255
255
255
255
255
255
255
255
255
255
255
255
255
255
235
235
255
117
118
255
58
60
255
0
9
255
0
9
255
0
9
255
0
9
255
0
9
255
0
9
255
0
9
255
0
9
255
0
9
255
0
9
255
0
9
255
0
9
255
0
9
255
42
45
255
163
164
255
255
255
255
255
255
255
255
255
255
255
255
255
255
255
255
255
255
255
255
255
255
255
255
255
255
255
255
255
255
255
255
255
255
255
255
255
255
218
163
255
194
42
255
192
0
255
192
0
255
192
0
255
192
0
255
192
0
255
192
0
255
192
0
255
192
0
255
192
0
255
192
0
255
192
0
255
192
0
255
192
0
255
192
0
255
192
0
255
192
0
255
205
115
255
246
235
255
255
255
255
255
255
255
255
255
255
255
255
255
255
255
255
255
255
255
255
255
255
255
255
255
255
255
255
255
255
255
255
255
255
255
255
255
255
255
235
235
255
115
116
255
0
9
255
0
9
255
0
9
255
0
9
255
0
9
255
0
9
255
0
9
255
0
9
255
0
9
255
0
9
255
0
9
255
0
9
255
0
9
255
0
9
255
0
9
255
0
9
255
42
45
255
163
164
255
255
255
255
255
255
255
255
255
255
255
255
255
255
255
255
255
255
255
255
255
255
255
255
255
255
255
255
255
255
255
255
218
163
255
194
42
255
192
0
255
192
0
255
192
0
255
192
0
255
192
0
255
192
0
255
192
0
255
192
0
255
192
0
255
192
0
255
192
0
255
192
0
255
192
0
255
192
0
255
192
0
255
192
0
255
192
0
255
192
0
255
205
115
255
227
189
255
250
245
255
255
255
255
255
255
255
255
255
255
255
255
255
255
255
255
255
255
255
255
255
255
255
255
255
255
255
255
255
255
235
235
255
115
116
255
0
9
255
0
9
255
0
9
255
0
9
255
0
9
255
0
9
255
0
9
255
0
9
255
0
9
255
0
9
255
0
9
255
0
9
255
0
9
255
0
9
255
0
9
255
0
9
255
0
9
255
0
9
255
42
45
255
145
145
255
216
216
255
255
255
255
255
255
255
255
255
255
255
255
255
255
255
255
255
255
255
255
246
236
255
215
154
255
194
42
255
192
0
255
192
0
255
192
0
255
192
0
255
192
0
255
192
0
255
192
0
255
192
0
255
192
0
255
192
0
255
192
0
255
192
0
255
192
0
255
192
0
255
192
0
255
192
0
255
192
0
255
192
0
255
192
0
255
192
0
255
198
83
255
216
158
255
248
240
255
255
255
255
255
255
255
255
255
255
255
255
255
255
255
255
255
255
255
255
255
250
250
255
214
214
255
115
116
255
0
9
255
0
9
255
0
9
255
0
9
255
0
9
255
0
9
255
0
9
255
0
9
255
0
9
255
0
9
255
0
9
255
0
9
255
0
9
255
0
9
255
0
9
255
0
9
255
0
9
255
0
9
255
0
9
255
0
9
255
28
32
255
109
110
255
192
192
255
255
255
255
255
255
255
255
255
255
255
255
255
255
237
216
255
209
134
255
193
36
255
192
0
255
192
0
255
192
0
255
192
0
255
192
0
255
192
0
255
192
0
255
192
0
255
192
0
255
192
0
255
192
0
255
192
0
255
192
0
255
192
0
255
192
0
255
192
0
255
192
0
255
192
0
255
192
0
255
192
0
255
192
0
255
192
0
255
195
58
255
205
117
255
246
235
255
255
255
255
255
255
255
255
255
255
255
255
255
255
255
245
245
255
188
189
255
101
101
255
0
9
255
0
9
255
0
9
255
0
9
255
0
9
255
0
9
255
0
9
255
0
9
255
0
9
255
0
9
255
0
9
255
0
9
255
0
9
255
0
9
255
0
9
255
0
9
255
0
9
255
0
9
255
0
9
255
0
9
255
0
9
255
0
9
255
18
23
255
73
74
255
163
164
255
255
255
255
255
255
255
255
255
255
255
250
245
255
245
233
255
244
232
255
244
232
255
235
210
255
233
204
255
223
178
255
210
135
255
207
124
255
195
58
255
192
0
255
192
0
255
192
0
255
192
0
255
192
0
255
192
0
255
192
0
255
204
111
255
217
162
255
230
197
255
233
204
255
242
226
255
244
232
255
244
232
255
244
232
255
244
232
255
244
232
255
254
252
255
255
255
255
255
255
255
255
255
255
255
255
255
255
255
254
254
255
242
242
255
232
232
255
232
232
255
226
226
255
204
204
255
197
198
255
162
162
255
124
125
255
111
112
255
0
9
255
0
9
255
0
9
255
0
9
255
0
9
255
0
9
255
0
9
255
58
60
255
135
136
255
178
178
255
204
204
255
210
210
255
232
232
255
232
232
255
232
232
255
232
232
255
232
232
255
235
235
255
255
255
255
255
255
255
255
255
255
255
255
255
255
255
255
255
255
255
255
255
255
255
253
250
255
252
249
255
250
244
255
247
239
255
247
238
255
245
232
255
205
115
255
192
0
255
192
0
255
192
0
255
192
0
255
192
0
255
192
0
255
237
214
255
249
243
255
252
249
255
252
249
255
255
254
255
255
255
255
255
255
255
255
255
255
255
255
255
255
255
255
255
255
255
255
255
255
255
255
255
255
255
255
255
255
255
255
255
255
255
255
255
255
255
255
255
255
255
255
255
254
254
255
249
249
255
249
249
255
243
243
255
238
238
255
237
237
255
208
208
255
0
9
255
0
9
255
0
9
255
0
9
255
0
9
255
0
9
255
117
118
255
239
239
255
244
244
255
249
249
255
250
250
255
255
255
255
255
255
255
255
255
255
255
255
255
255
255
255
255
255
255
255
255
255
255
255
255
255
255
255
255
255
255
255
255
255
255
255
255
255
255
255
255
255
255
255
255
255
255
255
255
255
255
255
255
255
255
255
255
255
255
237
214
255
202
101
255
192
0
255
192
0
255
192
0
255
192
0
255
204
111
255
247
237
255
255
255
255
255
255
255
255
255
255
255
255
255
255
255
255
255
255
255
255
255
255
255
255
255
255
255
255
255
255
255
255
255
255
255
255
255
255
255
255
255
255
255
255
255
255
255
255
255
255
255
255
255
255
255
255
255
255
255
255
255
255
255
255
255
255
255
255
255
255
255
255
255
255
255
247
247
255
183
183
255
0
9
255
0
9
255
0
9
255
0
9
255
58
60
255
160
161
255
255
255
255
255
255
255
255
255
255
255
255
255
255
255
255
255
255
255
255
255
255
255
255
255
255
255
255
255
255
255
255
255
255
255
255
255
255
255
255
255
255
255
255
255
255
255
255
255
255
255
255
255
255
255
255
255
255
255
255
255
255
255
255
255
255
255
255
255
255
255
253
250
255
206
120
255
192
0
255
192
0
255
192
0
255
192
0
255
237
214
255
254
253
255
255
255
255
255
255
255
255
255
255
255
255
255
255
255
255
255
255
255
255
255
255
255
255
255
255
255
255
255
255
255
255
255
255
255
255
255
255
255
255
255
255
255
255
255
255
255
255
255
255
255
255
255
255
255
255
255
255
255
255
255
255
255
255
255
255
255
255
255
255
255
255
255
255
255
254
254
255
226
226
255
0
9
255
0
9
255
0
9
255
0
9
255
117
118
255
240
240
255
255
255
255
255
255
255
255
255
255
255
255
255
255
255
255
255
255
255
255
255
255
255
255
255
255
255
255
255
255
255
255
255
255
255
255
255
255
255
255
255
255
255
255
255
255
255
255
255
255
255
255
255
255
255
255
255
255
255
255
255
255
255
255
255
255
255
255
255
255
255
255
255
255
217
160
255
195
58
255
192
0
255
192
0
255
192
0
255
244
232
255
255
255
255
255
255
255
255
255
255
255
255
255
255
255
255
255
255
255
255
255
255
255
255
255
255
255
255
255
255
255
255
255
255
255
255
255
255
255
255
255
255
255
255
255
255
255
255
255
255
255
255
255
255
255
255
255
255
255
255
255
255
255
255
255
255
255
255
255
255
255
255
255
255
255
255
255
255
255
255
255
237
237
255
111
112
255
0
9
255
0
9
255
0
9
255
122
123
255
255
255
255
255
255
255
255
255
255
255
255
255
255
255
255
255
255
255
255
255
255
255
255
255
255
255
255
255
255
255
255
255
255
255
255
255
255
255
255
255
255
255
255
255
255
255
255
255
255
255
255
255
255
255
255
255
255
255
255
255
255
255
255
255
255
255
255
255
255
255
255
255
255
255
255
255
248
240
255
205
117
255
192
0
255
192
0
255
225
183
255
251
247
255
255
255
255
255
255
255
255
255
255
255
255
255
255
255
255
255
255
255
255
255
255
255
255
255
255
255
255
255
255
255
255
255
255
255
255
255
255
255
255
255
255
255
255
255
255
255
255
255
255
255
255
255
255
255
255
255
255
255
255
255
255
255
255
255
255
255
255
255
255
255
255
255
255
255
255
255
255
255
255
255
253
253
255
214
215
255
0
9
255
0
9
255
101
101
255
214
214
255
255
255
255
255
255
255
255
255
255
255
255
255
255
255
255
255
255
255
255
255
255
255
255
255
255
255
255
255
255
255
255
255
255
255
255
255
255
255
255
255
255
255
255
255
255
255
255
255
255
255
255
255
255
255
255
255
255
255
255
255
255
255
255
255
255
255
255
255
255
255
255
255
255
255
255
255
255
255
255
206
122
255
192
0
255
192
0
255
242
226
255
255
254
255
255
255
255
255
255
255
255
255
255
255
255
255
255
255
255
255
255
255
255
255
255
255
255
255
255
255
255
255
255
255
255
255
255
255
255
255
255
255
255
255
255
255
255
255
255
255
255
255
255
255
255
255
255
255
255
255
255
255
255
255
255
255
255
255
255
255
255
255
255
255
255
255
255
255
255
255
255
255
255
255
255
255
255
232
232
255
0
9
255
0
9
255
120
121
255
250
250
255
255
255
255
255
255
255
255
255
255
255
255
255
255
255
255
255
255
255
255
255
255
255
255
255
255
255
255
255
255
255
255
255
255
255
255
255
255
255
255
255
255
255
255
255
255
255
255
255
255
255
255
255
255
255
255
255
255
255
255
255
255
255
255
255
255
255
255
255
255
255
255
255
255
255
255
255
255
255
255
237
214
255
202
101
255
204
111
255
247
237
255
255
255
255
255
255
255
255
255
255
255
255
255
255
255
255
255
255
255
255
255
255
255
255
255
255
255
255
255
255
255
255
255
255
255
255
255
255
255
255
255
255
255
255
255
255
255
255
255
255
255
255
255
255
255
255
255
255
255
255
255
255
255
255
255
255
255
255
255
255
255
255
255
255
255
255
255
255
255
255
255
255
255
255
255
255
255
247
247
255
183
183
255
58
60
255
160
161
255
255
255
255
255
255
255
255
255
255
255
255
255
255
255
255
255
255
255
255
255
255
255
255
255
255
255
255
255
255
255
255
255
255
255
255
255
255
255
255
255
255
255
255
255
255
255
255
255
255
255
255
255
255
255
255
255
255
255
255
255
255
255
255
255
255
255
255
255
255
255
255
255
255
255
255
255
255
255
255
255
255
255
253
250
255
206
120
255
237
214
255
254
253
255
255
255
255
255
255
255
255
255
255
255
255
255
255
255
255
255
255
255
255
255
255
255
255
255
255
255
255
255
255
255
255
255
255
255
255
255
255
255
255
255
255
255
255
255
255
255
255
255
255
255
255
255
255
255
255
255
255
255
255
255
255
255
255
255
255
255
255
255
255
255
255
255
255
255
255
255
255
255
255
255
255
255
255
255
255
255
254
254
255
226
226
255
117
118
255
240
240
255
255
255
255
255
255
255
255
255
255
255
255
255
255
255
255
255
255
255
255
255
255
255
255
255
255
255
255
255
255
255
255
255
255
255
255
255
255
255
255
255
255
255
255
255
255
255
255
255
255
255
255
255
255
255
255
255
255
255
255
255
255
255
255
255
255
255
255
255
255
255
255
255
255
255
255
255
255
255
255
255
255
255
255
255
255
217
160
255
247
237
255
255
255
255
255
255
255
255
255
255
255
255
255
255
255
255
255
255
255
255
255
255
255
255
255
255
255
255
255
255
255
255
255
255
255
255
255
255
255
255
255
255
255
255
255
255
255
255
255
255
255
255
255
255
255
255
255
255
255
255
255
255
255
255
255
255
255
255
255
255
255
255
255
255
255
255
255
255
255
255
255
255
255
255
255
255
255
255
255
255
255
255
255
237
237
255
160
161
255
255
255
255
255
255
255
255
255
255
255
255
255
255
255
255
255
255
255
255
255
255
255
255
255
255
255
255
255
255
255
255
255
255
255
255
255
255
255
255
255
255
255
255
255
255
255
255
255
255
255
255
255
255
255
255
255
255
255
255
255
255
255
255
255
255
255
255
255
255
255
255
255
255
255
255
255
255
255
255
255
255
255
255
255
255
255
255
255
248
240
255
254
253
255
255
255
255
255
255
255
255
255
255
255
255
255
255
255
255
255
255
255
255
255
255
255
255
255
255
255
255
255
255
255
255
255
255
255
255
255
255
255
255
255
255
255
255
255
255
255
255
255
255
255
255
255
255
255
255
255
255
255
255
255
255
255
255
255
255
255
255
255
255
255
255
255
255
255
255
255
255
255
255
255
255
255
255
255
255
255
255
255
255
255
255
255
253
253
255
240
240
255
255
255
255
255
255
255
255
255
255
255
255
255
255
255
255
255
255
255
255
255
255
255
255
255
255
255
255
255
255
255
255
255
255
255
255
255
255
255
255
255
255
255
255
255
255
255
255
255
255
255
255
255
255
255
255
255
255
255
255
255
255
255
255
255
255
255
255
255
255
255
255
255
255
255
255
255
255
255
255
255
255
255
255
255
255
255
255
255
255
255
255
255
255
255
255
255
255
255
255
255
255
255
255
255
255
255
255
255
255
255
255
255
255
255
255
255
255
255
255
255
255
255
255
255
255
255
255
255
255
255
255
255
255
255
255
255
255
255
255
255
255
255
255
255
255
255
255
255
255
255
255
255
255
255
255
255
255
255
255
255
255
255
255
255
255
255
255
255
255
255
255
255
255
255
255
255
255
255
255
255
255
255
255
255
255
255
255
255
255
255
255
255
255
255
255
255
255
255
255
255
255
255
255
255
255
255
255
255
255
255
255
255
255
255
255
255
255
255
255
255
255
255
255
255
255
255
255
255
255
255
255
255
255
255
255
255
255
255
255
255
255
255
255
255
255
255
255
255
255
255
255
255
255
255
255
255
255
255
255
255
255
255
255
255
255
255
255
255
255
255
255
255
255
255
255
255
255
255
255
255
255
255
255
255
255
255
255
255
255
255
255
255
255
255
255
255
255
255
255
255
255
255
255
255
255
255
255
255
255
255
255
255
255
255
255
255
255
255
255
255
255
255
255
255
255
255
255
255
255
255
255
255
255
255
255
255
255
255
255
255
255
255
255
255
255
255
255
255
255
255
255
255
255
255
255
255
255
255
255
255
255
255
255
255
255
255
255
255
255
255
255
255
255
255
255
255
255
255
255
255
255
255
255
255
255
255
255
255
255
255
255
255
255
255
255
255
255
255
255
255
255
255
255
255
255
255
255
255
255
255
255
255
255
255
255
255
255
255
255
255
255
255
255
255
255
255
255
255
255
255
255
255
255
255
255
255
255
255
255
255
255
255
255
255
255
255
255
255
255
255
255
255
255
255
255
255
255
255
255
255
255
255
255
255
255
255
255
255
255
255
255
255
255
255
255
255
255
255
255
255
255
255
255
255
255
255
255
255
255
255
255
255
255
255
255
255
255
255
255
255
255
255
255
255
255
255
255
255
255
255
255
255
255
255
255
255
255
255
255
255
255
255
255
255
255
255
255
255
255
255
255
255
255
255
255
255
255
255
255
255
255
255
255
255
255
255
255
255
255
255
255
255
255
255
255
255
255
255
255
255
255
255
255
255
255
255
255
255
255
255
255
255
255
255
255
255
255
255
255
255
255
255
255
255
255
255
255
255
255
255
255
255
255
255
255
255
255
255
255
255
255
255
255
255
255
255
255
255
255
255
255
255
255
255
255
255
255
255
255
255
255
255
255
255
255
255
255
255
255
255
255
255
255
255
255
255
255
255
255
255
255
255
255
255
255
255
255
255
255
255
255
255
255
255
255
255
255
255
255
255
255
255
255
255
255
255
255
255
255
255
255
255
255
255
255
255
255
255
255
255
255
255
255
255
255
255
255
255
255
255
255
255
255
255
255
255
255
255
255
255
255
255
255
255
255
255
255
255
255
255
255
255
255
255
255
255
255
255
255
255
255
255
255
255
255
255
255
255
255
255
255
255
255
255
255
255
255
255
255
255
255
255
255
255
255
255
255
255
255
255
255
255
255
255
255
255
255
255
255
255
255
255
255
255
255
255
255
255
255
255
255
255
255
255
255
255
255
255
255
255
255
255
255
255
255
255
255
255
255
255
255
255
255
255
255
255
255
255
255
255
255
255
255
255
255
255
255
255
255
255
255
255
255
255
255
255
255
255
255
255
255
255
255
255
255
255
255
255
255
255
255
255
255
255
255
255
255
255
255
255
255
255
255
255
255
255
255
255
255
255
255
255
255
255
255
255
255
255
255
255
255
255
255
255
255
255
255
255
255
255
255
255
255
255
255
255
255
255
255
255
255
255
255
255
255
255
255
255
255
255
255
255
255
255
255
255
255
255
255
255
255
255
255
255
255
255
255
255
255
255
255
255
255
255
255
255
255
255
255
255
255
255
255
255
255
255
255
255
255
255
255
255
255
255
255
255
255
255
255
255
255
255
255
255
255
255
255
255
255
255
255
255
255
255
255
255
255
255
255
255
255
255
255
255
255
255
255
255
255
255
255
255
255
255
255
255
255
255
255
255
255
255
255
255
255
255
255
255
255
255
255
255
255
255
255
255
255
255
255
255
255
255
255
255
255
255
255
255
255
255
255
255
255
255
255
255
255
255
255
255
255
255
255
255
255
255
255
255
255
255
255
255
255
255
255
255
255
255
255
255
255
255
255
255
255
255
255
255
255
255
255
255
255
255
255
255
255
255
255
255
255
255
255
255
255
255
255
255
255
255
255
255
255
255
255
255
255
255
255
255
255
255
255
255
255
255
255
255
255
255
255
255
255
255
255
255
255
255
255
255
255
255
255
255
255
255
255
255
255
255
255
255
255
255
255
255
255
255
255
255
255
255
255
255
255
255
255
255
255
255
255
255
255
255
255
255
255
255
255
255
255
255
255
255
255
255
255
255
255
255
255
255
255
255
255
255
255
255
255
255
255
255
255
255
255
255
255
255
255
255
255
255
255
255
255
255
255
255
255
255
255
255
255
255
255
255
255
255
255
255
255
255
255
255
255
255
255
255
255
255
255
255
255
255
255
255
255
255
255
255
255
255
255
255
255
255
255
255
255
255
255
255
255
255
255
255
255
255
255
255
255
255
255
255
255
255
255
255
255
255
255
255
255
255
255
255
255
255
255
255
255
255
255
255
255
255
255
255
255
255
255
255
255
255
255
255
255
255
255
255
255
255
255
255
255
255
255
255
255
255
255
255
255
255
255
255
255
255
255
255
255
255
255
255
255
255
255
255
255
255
255
255
255
255
255
255
255
255
255
255
255
255
192
188
255
255
255
255
255
255
255
255
255
255
255
255
255
255
255
255
255
255
255
255
255
255
255
255
255
255
255
255
255
255
255
255
255
255
255
255
255
255
255
255
255
255
255
241
240
255
192
188
255
255
255
255
255
255
255
255
255
255
255
255
255
255
255
255
255
255
255
255
255
255
255
255
255
255
255
255
255
255
255
255
255
255
255
255
255
255
255
255
255
255
255
255
255
255
255
255
255
255
255
255
255
255
255
255
255
255
255
255
255
255
255
255
255
255
255
255
255
255
255
255
255
255
255
255
255
255
255
255
255
255
255
255
255
255
255
255
255
255
255
255
255
255
255
255
255
255
255
255
255
255
255
255
255
255
255
255
255
255
255
255
255
255
255
255
255
255
255
255
255
255
255
255
255
255
255
255
255
255
255
255
255
255
255
255
255
255
255
255
255
255
68
0
255
192
188
255
227
225
255
255
255
255
255
255
255
255
255
255
255
255
255
255
255
255
255
255
255
255
255
255
255
255
255
255
255
255
255
255
255
255
255
255
192
188
255
172
165
255
147
137
255
255
255
255
255
255
255
255
255
255
255
255
255
255
255
255
255
255
255
255
255
255
255
255
255
255
255
255
255
255
255
255
255
255
255
255
255
255
255
204
255
203
204
255
203
255
255
255
255
255
255
255
255
255
255
255
255
255
255
255
255
255
255
255
255
255
255
255
255
255
255
255
255
255
255
255
255
255
255
255
255
255
255
255
244
255
243
188
255
187
204
255
203
255
255
255
255
255
255
255
255
255
255
255
255
255
255
255
255
255
255
255
255
255
255
255
255
255
255
255
255
255
255
255
255
255
255
255
255
255
255
255
255
255
255
255
255
255
255
255
255
255
172
165
255
68
0
255
147
137
255
192
188
255
255
255
255
255
255
255
255
255
255
255
255
255
255
255
255
255
255
255
255
255
255
255
255
255
227
225
255
192
188
255
68
0
255
68
0
255
227
225
255
255
255
255
255
255
255
255
255
255
255
255
255
255
255
255
255
255
255
255
255
255
255
255
255
255
255
255
255
255
255
255
255
255
255
255
255
255
255
189
255
188
93
255
88
170
255
169
231
255
231
255
255
255
255
255
255
255
255
255
255
255
255
255
255
255
255
255
255
255
255
255
255
255
255
255
255
255
255
255
255
204
255
203
118
255
115
145
255
143
219
255
218
255
255
255
255
255
255
255
255
255
255
255
255
255
255
255
255
255
255
255
255
255
255
255
255
255
255
255
255
255
255
255
255
255
255
255
255
255
255
255
255
255
255
255
255
255
255
255
255
255
241
240
255
68
0
255
68
0
255
68
0
255
192
188
255
192
188
255
255
255
255
255
255
255
255
255
255
255
255
255
255
255
255
192
188
255
147
137
255
68
0
255
68
0
255
68
0
255
255
255
255
255
255
255
255
255
255
255
255
255
255
255
255
255
255
255
255
255
255
255
255
255
255
255
255
255
255
255
255
255
255
255
255
255
255
255
255
255
255
232
255
231
151
255
149
70
255
62
111
255
107
204
255
203
255
255
255
255
255
255
255
255
255
255
255
255
255
255
255
255
255
255
255
255
255
231
255
231
170
255
169
93
255
88
30
255
0
180
255
179
250
255
249
255
255
255
255
255
255
255
255
255
255
255
255
255
255
255
255
255
255
255
255
255
255
255
255
255
255
255
255
255
255
255
255
255
255
255
255
255
255
255
255
255
255
255
255
255
255
255
255
255
255
255
255
68
0
255
68
0
255
68
0
255
68
0
255
68
0
255
192
188
255
227
225
255
255
255
255
227
225
255
192
188
255
68
0
255
68
0
255
68
0
255
68
0
255
68
0
255
255
255
255
255
255
255
255
255
255
255
255
255
255
255
255
255
255
255
255
255
255
255
255
255
255
255
255
255
255
255
255
255
255
255
255
255
255
255
255
255
255
252
255
252
185
255
183
30
255
0
30
255
0
93
255
88
125
255
122
204
255
203
255
255
255
255
255
255
255
255
255
255
255
255
204
255
203
111
255
107
70
255
62
30
255
0
30
255
0
189
255
188
255
255
255
255
255
255
255
255
255
255
255
255
255
255
255
255
255
255
255
255
255
255
255
255
255
255
255
255
255
255
255
255
255
255
255
255
255
255
255
255
255
255
255
255
255
255
255
255
255
255
255
255
255
255
255
116
99
255
68
0
255
68
0
255
68
0
255
68
0
255
68
0
255
147
137
255
192
188
255
147
137
255
68
0
255
68
0
255
68
0
255
68
0
255
68
0
255
147
137
255
255
255
255
255
255
255
255
255
255
255
255
255
255
255
255
255
255
255
255
255
255
255
255
255
255
255
255
255
255
255
255
255
255
255
255
255
255
255
255
255
255
255
255
255
189
255
188
30
255
0
30
255
0
30
255
0
30
255
0
93
255
88
170
255
169
231
255
231
231
255
231
170
255
169
93
255
88
30
255
0
30
255
0
30
255
0
30
255
0
189
255
188
255
255
255
255
255
255
255
255
255
255
255
255
255
255
255
255
255
255
255
255
255
255
255
255
255
255
255
255
255
255
255
255
255
255
255
255
255
255
255
255
255
255
255
255
255
255
255
255
255
255
255
255
255
255
255
192
188
255
68
0
255
68
0
255
68
0
255
68
0
255
68
0
255
68
0
255
68
0
255
68
0
255
68
0
255
68
0
255
68
0
255
68
0
255
68
0
255
227
225
255
255
255
255
255
255
255
255
255
255
255
255
255
255
255
255
255
255
255
255
255
255
255
255
255
255
255
255
255
255
255
255
255
255
255
255
255
255
255
255
255
255
255
255
255
204
255
204
94
255
89
30
255
0
30
255
0
30
255
0
30
255
0
70
255
62
111
255
107
111
255
107
70
255
62
30
255
0
30
255
0
30
255
0
30
255
0
127
255
124
219
255
218
255
255
255
255
255
255
255
255
255
255
255
255
255
255
255
255
255
255
255
255
255
255
255
255
255
255
255
255
255
255
255
255
255
255
255
255
255
255
255
255
255
255
255
255
255
255
255
255
255
255
255
255
255
255
255
241
240
255
68
0
255
68
0
255
68
0
255
68
0
255
68
0
255
68
0
255
68
0
255
68
0
255
68
0
255
68
0
255
68
0
255
68
0
255
68
0
255
255
255
255
255
255
255
255
255
255
255
255
255
255
255
255
255
255
255
255
255
255
255
255
255
255
255
255
255
255
255
255
255
255
255
255
255
255
255
255
255
255
255
255
255
255
255
255
235
255
234
157
255
155
30
255
0
30
255
0
30
255
0
30
255
0
30
255
0
30
255
0
30
255
0
30
255
0
30
255
0
30
255
0
30
255
0
30
255
0
180
255
179
250
255
249
255
255
255
255
255
255
255
255
255
255
255
255
255
255
255
255
255
255
255
255
255
255
255
255
255
255
255
255
255
255
255
255
255
255
255
255
255
255
255
255
255
255
255
255
255
255
255
255
255
255
255
255
255
255
255
255
255
255
68
0
255
68
0
255
68
0
255
68
0
255
68
0
255
68
0
255
68
0
255
68
0
255
68
0
255
68
0
255
68
0
255
68
0
255
68
0
255
255
255
255
255
255
255
255
255
255
255
255
255
255
255
255
255
255
255
255
255
255
255
255
255
255
255
255
255
255
255
255
255
255
255
255
255
255
255
255
255
255
255
255
255
255
255
255
252
255
252
185
255
183
30
255
0
30
255
0
30
255
0
30
255
0
30
255
0
30
255
0
30
255
0
30
255
0
30
255
0
30
255
0
30
255
0
30
255
0
189
255
188
255
255
255
255
255
255
255
255
255
255
255
255
255
255
255
255
255
255
255
255
255
255
255
255
255
255
255
255
255
255
255
255
255
255
255
255
255
255
255
255
255
255
255
255
255
255
255
255
255
255
255
255
255
255
255
255
255
255
255
255
255
116
99
255
68
0
255
68
0
255
68
0
255
68
0
255
68
0
255
68
0
255
68
0
255
68
0
255
68
0
255
68
0
255
68
0
255
147
137
255
255
255
255
255
255
255
255
255
255
255
255
255
255
255
255
255
255
255
255
255
255
255
255
255
255
255
255
255
255
255
255
255
255
255
255
255
255
255
255
255
255
255
255
255
255
255
255
255
255
255
189
255
188
30
255
0
30
255
0
30
255
0
30
255
0
30
255
0
30
255
0
30
255
0
30
255
0
30
255
0
30
255
0
30
255
0
30
255
0
189
255
188
255
255
255
255
255
255
255
255
255
255
255
255
255
255
255
255
255
255
255
255
255
255
255
255
255
255
255
255
255
255
255
255
255
255
255
255
255
255
255
255
255
255
255
255
255
255
255
255
255
255
255
255
255
255
255
255
255
255
210
207
255
116
99
255
68
0
255
68
0
255
68
0
255
68
0
255
68
0
255
68
0
255
68
0
255
68
0
255
68
0
255
68
0
255
68
0
255
147
137
255
192
188
255
255
255
255
255
255
255
255
255
255
255
255
255
255
255
255
255
255
255
255
255
255
255
255
255
255
255
255
255
255
255
255
255
255
255
255
255
255
255
255
255
255
255
255
255
255
255
255
204
255
204
94
255
89
30
255
0
30
255
0
30
255
0
30
255
0
30
255
0
30
255
0
30
255
0
30
255
0
30
255
0
30
255
0
127
255
124
219
255
218
255
255
255
255
255
255
255
255
255
255
255
255
255
255
255
255
255
255
255
255
255
255
255
255
255
255
255
255
255
255
255
255
255
255
255
255
255
255
255
255
255
255
255
255
255
255
255
255
255
255
255
255
255
255
255
192
188
255
116
99
255
68
0
255
68
0
255
68
0
255
68
0
255
68
0
255
68
0
255
68
0
255
68
0
255
68
0
255
68
0
255
68
0
255
68
0
255
68
0
255
68
0
255
192
188
255
255
255
255
255
255
255
255
255
255
255
255
255
255
255
255
255
255
255
255
255
255
255
255
255
255
255
255
255
255
255
255
255
255
255
255
255
255
255
255
255
255
218
255
218
133
255
130
54
255
43
30
255
0
30
255
0
30
255
0
30
255
0
30
255
0
30
255
0
30
255
0
30
255
0
30
255
0
30
255
0
70
255
62
111
255
107
204
255
203
255
255
255
255
255
255
255
255
255
255
255
255
255
255
255
255
255
255
255
255
255
255
255
255
255
255
255
255
255
255
255
255
255
255
255
255
255
255
255
255
255
255
255
255
255
255
255
255
255
192
188
255
68
0
255
68
0
255
68
0
255
68
0
255
68
0
255
68
0
255
68
0
255
68
0
255
68
0
255
68
0
255
68
0
255
68
0
255
68
0
255
68
0
255
68
0
255
68
0
255
68
0
255
192
188
255
255
255
255
255
255
255
255
255
255
255
255
255
255
255
255
255
255
255
255
255
255
255
255
255
255
255
255
255
255
255
255
255
255
255
255
204
255
203
102
255
98
54
255
43
30
255
0
30
255
0
30
255
0
30
255
0
30
255
0
30
255
0
30
255
0
30
255
0
30
255
0
30
255
0
30
255
0
30
255
0
30
255
0
93
255
88
204
255
203
255
255
255
255
255
255
255
255
255
255
255
255
255
255
255
255
255
255
255
255
255
255
255
255
255
255
255
255
255
255
255
255
255
255
255
255
255
255
255
255
255
255
255
192
188
255
68
0
255
68
0
255
68
0
255
68
0
255
68
0
255
68
0
255
68
0
255
68
0
255
68
0
255
68
0
255
68
0
255
68
0
255
68
0
255
68
0
255
68
0
255
68
0
255
68
0
255
68
0
255
68
0
255
192
188
255
227
225
255
255
255
255
255
255
255
255
255
255
255
255
255
255
255
255
255
255
255
255
255
255
255
255
255
255
255
204
255
203
93
255
88
30
255
0
30
255
0
30
255
0
30
255
0
30
255
0
30
255
0
30
255
0
30
255
0
30
255
0
30
255
0
30
255
0
30
255
0
30
255
0
30
255
0
30
255
0
30
255
0
93
255
88
204
255
203
255
255
255
255
255
255
255
255
255
255
255
255
255
255
255
255
255
255
255
255
255
255
255
255
255
255
255
255
255
255
255
255
255
255
241
240
255
192
188
255
68
0
255
68
0
255
68
0
255
68
0
255
68
0
255
68
0
255
68
0
255
68
0
255
68
0
255
68
0
255
68
0
255
68
0
255
68
0
255
68
0
255
68
0
255
68
0
255
68
0
255
68
0
255
68
0
255
68
0
255
68
0
255
147
137
255
210
207
255
255
255
255
255
255
255
255
255
255
255
255
255
255
255
255
255
255
255
255
255
204
255
203
93
255
88
30
255
0
30
255
0
30
255
0
30
255
0
30
255
0
30
255
0
30
255
0
30
255
0
30
255
0
30
255
0
30
255
0
30
255
0
30
255
0
30
255
0
30
255
0
30
255
0
30
255
0
30
255
0
93
255
88
170
255
169
231
255
231
255
255
255
255
255
255
255
255
255
255
255
255
255
255
255
255
255
255
255
255
255
255
255
255
255
227
225
255
172
165
255
68
0
255
68
0
255
68
0
255
68
0
255
68
0
255
68
0
255
68
0
255
68
0
255
68
0
255
68
0
255
68
0
255
68
0
255
68
0
255
68
0
255
68
0
255
68
0
255
68
0
255
68
0
255
68
0
255
68
0
255
68
0
255
68
0
255
68
0
255
116
99
255
192
188
255
255
255
255
255
255
255
255
255
255
255
255
244
255
243
188
255
187
93
255
88
30
255
0
30
255
0
30
255
0
30
255
0
30
255
0
30
255
0
30
255
0
30
255
0
30
255
0
30
255
0
30
255
0
30
255
0
30
255
0
30
255
0
30
255
0
30
255
0
30
255
0
30
255
0
30
255
0
30
255
0
70
255
62
139
255
136
218
255
218
255
255
255
255
255
255
255
255
255
255
255
255
255
255
255
255
255
255
255
255
255
255
227
225
255
192
188
255
192
188
255
192
188
255
172
165
255
172
165
255
147
137
255
116
99
255
116
99
255
68
0
255
68
0
255
68
0
255
68
0
255
68
0
255
68
0
255
68
0
255
68
0
255
116
99
255
147
137
255
172
165
255
172
165
255
192
188
255
192
188
255
192
188
255
192
188
255
192
188
255
192
188
255
255
255
255
255
255
255
255
255
231
255
231
166
255
164
82
255
77
30
255
0
30
255
0
30
255
0
30
255
0
30
255
0
30
255
0
30
255
0
30
255
0
30
255
0
30
255
0
30
255
0
30
255
0
30
255
0
30
255
0
30
255
0
30
255
0
30
255
0
30
255
0
30
255
0
30
255
0
30
255
0
30
255
0
54
255
43
102
255
98
204
255
203
255
255
255
255
255
255
255
255
255
255
255
255
255
255
255
255
255
255
255
255
255
255
255
255
255
255
255
255
255
255
255
241
240
255
241
240
255
227
225
255
210
207
255
210
207
255
192
188
255
68
0
255
68
0
255
68
0
255
68
0
255
68
0
255
68
0
255
68
0
255
210
207
255
227
225
255
241
240
255
241
240
255
255
255
255
255
255
255
255
255
255
255
255
255
255
255
255
255
255
255
255
255
255
255
255
255
255
255
250
255
249
238
255
238
232
255
232
232
255
232
219
255
218
205
255
204
189
255
188
151
255
149
127
255
124
94
255
89
30
255
0
30
255
0
30
255
0
30
255
0
30
255
0
30
255
0
30
255
0
94
255
89
151
255
149
189
255
188
205
255
204
219
255
218
232
255
232
232
255
232
232
255
232
232
255
232
232
255
232
244
255
244
255
255
255
255
255
255
255
255
255
255
255
255
255
255
255
255
255
255
255
255
255
255
255
255
255
255
255
255
255
255
255
255
255
255
255
255
255
255
255
255
255
255
255
255
255
255
255
255
255
172
165
255
68
0
255
68
0
255
68
0
255
68
0
255
68
0
255
116
99
255
255
255
255
255
255
255
255
255
255
255
255
255
255
255
255
255
255
255
255
255
255
255
255
255
255
255
255
255
255
255
255
255
255
255
255
255
255
255
255
255
255
255
255
255
255
255
255
255
255
255
252
255
252
250
255
249
247
255
247
241
255
241
238
255
238
235
255
235
172
255
170
30
255
0
30
255
0
30
255
0
30
255
0
30
255
0
30
255
0
176
255
175
241
255
241
247
255
247
250
255
249
252
255
252
255
255
255
255
255
255
255
255
255
255
255
255
255
255
255
255
255
255
255
255
255
255
255
255
255
255
255
255
255
255
255
255
255
255
255
255
255
255
255
255
255
255
255
255
255
255
255
255
255
255
255
255
255
255
255
255
255
255
255
255
255
255
255
255
255
255
255
241
240
255
68
0
255
68
0
255
68
0
255
68
0
255
68
0
255
210
207
255
255
255
255
255
255
255
255
255
255
255
255
255
255
255
255
255
255
255
255
255
255
255
255
255
255
255
255
255
255
255
255
255
255
255
255
255
255
255
255
255
255
255
255
255
255
255
255
255
255
255
255
255
255
255
255
255
255
255
255
255
255
255
255
255
255
255
255
255
232
255
231
151
255
149
30
255
0
30
255
0
30
255
0
30
255
0
94
255
89
204
255
204
255
255
255
255
255
255
255
255
255
255
255
255
255
255
255
255
255
255
255
255
255
255
255
255
255
255
255
255
255
255
255
255
255
255
255
255
255
255
255
255
255
255
255
255
255
255
255
255
255
255
255
255
255
255
255
255
255
255
255
255
255
255
255
255
255
255
255
255
255
255
255
255
255
255
255
255
255
255
255
255
255
255
116
99
255
68
0
255
68
0
255
68
0
255
68
0
255
255
255
255
255
255
255
255
255
255
255
255
255
255
255
255
255
255
255
255
255
255
255
255
255
255
255
255
255
255
255
255
255
255
255
255
255
255
255
255
255
255
255
255
255
255
255
255
255
255
255
255
255
255
255
255
255
255
255
255
255
255
255
255
255
255
255
255
255
255
255
255
252
255
252
185
255
183
30
255
0
30
255
0
30
255
0
30
255
0
176
255
175
247
255
247
255
255
255
255
255
255
255
255
255
255
255
255
255
255
255
255
255
255
255
255
255
255
255
255
255
255
255
255
255
255
255
255
255
255
255
255
255
255
255
255
255
255
255
255
255
255
255
255
255
255
255
255
255
255
255
255
255
255
255
255
255
255
255
255
255
255
255
255
255
255
255
255
255
255
255
255
255
255
255
255
255
255
210
207
255
68
0
255
68
0
255
68
0
255
172
165
255
255
255
255
255
255
255
255
255
255
255
255
255
255
255
255
255
255
255
255
255
255
255
255
255
255
255
255
255
255
255
255
255
255
255
255
255
255
255
255
255
255
255
255
255
255
255
255
255
255
255
255
255
255
255
255
255
255
255
255
255
255
255
255
255
255
255
255
255
255
255
255
255
255
255
204
255
204
94
255
89
30
255
0
30
255
0
30
255
0
189
255
188
255
255
255
255
255
255
255
255
255
255
255
255
255
255
255
255
255
255
255
255
255
255
255
255
255
255
255
255
255
255
255
255
255
255
255
255
255
255
255
255
255
255
255
255
255
255
255
255
255
255
255
255
255
255
255
255
255
255
255
255
255
255
255
255
255
255
255
255
255
255
255
255
255
255
255
255
255
255
255
255
255
255
255
255
255
255
255
255
68
0
255
68
0
255
68
0
255
241
240
255
255
255
255
255
255
255
255
255
255
255
255
255
255
255
255
255
255
255
255
255
255
255
255
255
255
255
255
255
255
255
255
255
255
255
255
255
255
255
255
255
255
255
255
255
255
255
255
255
255
255
255
255
255
255
255
255
255
255
255
255
255
255
255
255
255
255
255
255
255
255
255
255
255
255
247
255
247
176
255
175
30
255
0
30
255
0
151
255
149
232
255
231
255
255
255
255
255
255
255
255
255
255
255
255
255
255
255
255
255
255
255
255
255
255
255
255
255
255
255
255
255
255
255
255
255
255
255
255
255
255
255
255
255
255
255
255
255
255
255
255
255
255
255
255
255
255
255
255
255
255
255
255
255
255
255
255
255
255
255
255
255
255
255
255
255
255
255
255
255
255
255
255
255
255
255
255
255
255
255
255
172
165
255
68
0
255
116
99
255
255
255
255
255
255
255
255
255
255
255
255
255
255
255
255
255
255
255
255
255
255
255
255
255
255
255
255
255
255
255
255
255
255
255
255
255
255
255
255
255
255
255
255
255
255
255
255
255
255
255
255
255
255
255
255
255
255
255
255
255
255
255
255
255
255
255
255
255
255
255
255
255
255
255
255
255
255
255
255
255
189
255
188
30
255
0
30
255
0
185
255
183
252
255
252
255
255
255
255
255
255
255
255
255
255
255
255
255
255
255
255
255
255
255
255
255
255
255
255
255
255
255
255
255
255
255
255
255
255
255
255
255
255
255
255
255
255
255
255
255
255
255
255
255
255
255
255
255
255
255
255
255
255
255
255
255
255
255
255
255
255
255
255
255
255
255
255
255
255
255
255
255
255
255
255
255
255
255
255
255
255
255
255
241
240
255
68
0
255
210
207
255
255
255
255
255
255
255
255
255
255
255
255
255
255
255
255
255
255
255
255
255
255
255
255
255
255
255
255
255
255
255
255
255
255
255
255
255
255
255
255
255
255
255
255
255
255
255
255
255
255
255
255
255
255
255
255
255
255
255
255
255
255
255
255
255
255
255
255
255
255
255
255
255
255
255
255
255
255
255
255
255
232
255
231
151
255
149
94
255
89
204
255
204
255
255
255
255
255
255
255
255
255
255
255
255
255
255
255
255
255
255
255
255
255
255
255
255
255
255
255
255
255
255
255
255
255
255
255
255
255
255
255
255
255
255
255
255
255
255
255
255
255
255
255
255
255
255
255
255
255
255
255
255
255
255
255
255
255
255
255
255
255
255
255
255
255
255
255
255
255
255
255
255
255
255
255
255
255
255
255
255
255
255
255
255
255
255
116
99
255
255
255
255
255
255
255
255
255
255
255
255
255
255
255
255
255
255
255
255
255
255
255
255
255
255
255
255
255
255
255
255
255
255
255
255
255
255
255
255
255
255
255
255
255
255
255
255
255
255
255
255
255
255
255
255
255
255
255
255
255
255
255
255
255
255
255
255
255
255
255
255
255
255
255
255
255
255
255
255
255
255
255
255
252
255
252
185
255
183
176
255
175
247
255
247
255
255
255
255
255
255
255
255
255
255
255
255
255
255
255
255
255
255
255
255
255
255
255
255
255
255
255
255
255
255
255
255
255
255
255
255
255
255
255
255
255
255
255
255
255
255
255
255
255
255
255
255
255
255
255
255
255
255
255
255
255
255
255
255
255
255
255
255
255
255
255
255
255
255
255
255
255
255
255
255
255
255
255
255
255
255
255
255
255
255
255
255
255
255
210
207
255
255
255
255
255
255
255
255
255
255
255
255
255
255
255
255
255
255
255
255
255
255
255
255
255
255
255
255
255
255
255
255
255
255
255
255
255
255
255
255
255
255
255
255
255
255
255
255
255
255
255
255
255
255
255
255
255
255
255
255
255
255
255
255
255
255
255
255
255
255
255
255
255
255
255
255
255
255
255
255
255
255
255
255
255
255
255
204
255
204
204
255
204
255
255
255
255
255
255
255
255
255
255
255
255
255
255
255
255
255
255
255
255
255
255
255
255
255
255
255
255
255
255
255
255
255
255
255
255
255
255
255
255
255
255
255
255
255
255
255
255
255
255
255
255
255
255
255
255
255
255
255
255
255
255
255
255
255
255
255
255
255
255
255
255
255
255
255
255
255
255
255
255
255
255
255
255
255
255
255
255
255
255
255
255
255
255
255
255
255
255
255
255
255
255
255
255
255
255
255
255
255
255
255
255
255
255
255
255
255
255
255
255
255
255
255
255
255
255
255
255
255
255
255
255
255
255
255
255
255
255
255
255
255
255
255
255
255
255
255
255
255
255
255
255
255
255
255
255
255
255
255
255
255
255
255
255
255
255
255
255
255
255
255
255
255
255
255
255
255
255
255
255
255
255
255
255
255
255
247
255
247
247
255
247
255
255
255
255
255
255
255
255
255
255
255
255
255
255
255
255
255
255
255
255
255
255
255
255
255
255
255
255
255
255
255
255
255
255
255
255
255
255
255
255
255
255
255
255
255
255
255
255
255
255
255
255
255
255
255
255
255
255
255
255
255
255
255
255
255
255
255
255
255
255
255
255
255
255
255
255
255
255
255
255
255
255
255
255
255
255
255
255
255
255
255
255
255
255
255
255
255
255
255
255
255
255
255
255
255
255
255
255
255
255
255
255
255
255
255
255
255
255
255
255
255
255
255
255
255
255
255
255
255
255
255
255
255
255
255
255
255
255
255
255
255
255
255
255
255
255
255
